<svg xmlns="http://www.w3.org/2000/svg" xmlns:xlink="http://www.w3.org/1999/xlink" viewBox="0 0 113 23" fit="" height="100%" width="100%" preserveAspectRatio="xMidYMid meet" focusable="false"><defs><style>.cls-1{fill:none;}.cls-2{clip-path:url(#clip-path);}.cls-3{fill:none;}.cls-4{fill:#fff;} </style><clipPath id="clip-path" transform="translate(0 0)"><rect class="cls-1" width="113" height="23"></rect></clipPath></defs><g id="Ebene_2" data-name="Ebene 2"><g id="Ebene_1-2" data-name="Ebene 1"><g class="cls-2"><rect class="cls-3" width="113" height="23"></rect></g><g class="cls-2"><path class="cls-4" d="M56.69,15.71A19.57,19.57,0,0,0,65.9,0h3.4A22.92,22.92,0,0,1,58.39,18.61l-1.7-2.9" transform="translate(0 0)"></path><path class="cls-4" d="M83.65,15.71A19.57,19.57,0,0,1,74.44,0H71a22.91,22.91,0,0,0,10.9,18.61l1.71-2.9" transform="translate(0 0)"></path><path class="cls-4" d="M61,23a20.19,20.19,0,0,1,18.41,0c.57-1,1.14-1.93,1.7-2.9a23.6,23.6,0,0,0-21.81,0c.57,1,1.14,1.93,1.7,2.9" transform="translate(0 0)"></path><polygon class="cls-4" points="28 1.92 48.37 1.92 48.37 5.27 31.71 5.27 31.71 9.73 48.37 9.73 48.37 13.08 31.71 13.08 31.71 17.73 48.37 17.73 48.37 21.09 28 21.08 28 1.92"></polygon><path class="cls-4" d="M95.08,5.27V17.73h10.13a4.18,4.18,0,0,0,3.18-.93,4.16,4.16,0,0,0,.91-3.14V9.34a4.16,4.16,0,0,0-.91-3.14,4.18,4.18,0,0,0-3.18-.93H95.08m10.4-3.35c2,0,4.22.06,5.85,1.7S113,7.42,113,9.41v4.18c0,2-.06,4.17-1.67,5.79s-3.82,1.7-5.85,1.7H91.3V1.92h14.18" transform="translate(0 0)"></path><polygon class="cls-4" points="0 1.92 0 21.08 20.36 21.09 20.36 17.73 3.7 17.73 3.7 1.92 0 1.92"></polygon></g></g></g></svg>