<svg xmlns="http://www.w3.org/2000/svg" viewBox="0 0 155.04 90.4"><defs><style>.cls-1{fill:#fff;}</style></defs><g id="Ebene_2" data-name="Ebene 2"><g id="Ebene_1-2" data-name="Ebene 1"><path class="cls-1" d="M77.8,21.87A27.3,27.3,0,0,0,90.42,0h4.67a32,32,0,0,1-15,25.91c-.78-1.35-1.55-2.7-2.33-4"/><path class="cls-1" d="M114.77,21.87A27.3,27.3,0,0,1,102.15,0H97.48a32,32,0,0,0,15,25.91c.78-1.35,1.55-2.7,2.33-4"/><path class="cls-1" d="M83.66,32a27.28,27.28,0,0,1,25.25,0c.78-1.35,1.56-2.69,2.33-4a32,32,0,0,0-29.91,0c.77,1.35,1.55,2.69,2.33,4"/><polygon class="cls-1" points="38.45 2.67 66.39 2.67 66.39 7.34 43.53 7.34 43.53 13.54 66.39 13.54 66.38 18.22 43.53 18.21 43.53 24.68 66.38 24.68 66.38 29.35 38.45 29.35 38.45 2.67"/><path class="cls-1" d="M144.72,2.67c2.78,0,5.79.09,8,2.37s2.3,5.29,2.3,8.06v5.83c0,2.76-.09,5.8-2.3,8.06s-5.24,2.36-8,2.36H125.27V2.67h19.45M130.46,7.34V24.68h13.89c1.51,0,3.15-.05,4.36-1.29S150,20.52,150,19V13c0-1.51-.05-3.16-1.25-4.38s-2.85-1.29-4.36-1.29H130.46"/><polygon class="cls-1" points="0.04 2.67 0.04 29.35 27.97 29.35 27.97 24.68 5.12 24.68 5.12 2.67 0.04 2.67"/><path class="cls-1" d="M2.55,69.21H5.77v1.3H1.09V62.25H2.55Zm9.61-1H7.82a1.48,1.48,0,0,0,1.6,1.2,1.84,1.84,0,0,0,1.51-.72l.93.71a3,3,0,0,1-2.53,1.27,2.95,2.95,0,0,1,0-5.89,2.77,2.77,0,0,1,2.86,2.89Q12.19,67.9,12.16,68.2Zm-1.35-1A1.36,1.36,0,0,0,9.35,66a1.44,1.44,0,0,0-1.53,1.22Zm7-2.32h1.39v5.6H17.76v-.87a2.26,2.26,0,0,1-1.92,1,3,3,0,0,1,0-5.89,2.24,2.24,0,0,1,1.89.92Zm0,2.8a1.64,1.64,0,0,0-1.62-1.64,1.65,1.65,0,0,0,0,3.29A1.63,1.63,0,0,0,17.73,67.71Zm8.45-.34v3.14H24.79v-3a1.22,1.22,0,0,0-1.16-1.38,1.36,1.36,0,0,0-1.43,1.45v3H20.81v-5.6H22.2v.89a1.94,1.94,0,0,1,1.74-1C25.38,64.77,26.18,65.74,26.18,67.37Zm6.19,1.84h3.75v1.3h-5.2V62.25H36v1.31H32.37v2.23h3.17v1.33H32.37Zm15-4.3v5.6H46V66H43.62v4.49h-1.4V66h-2.9v4.49H37.93V66H36.86V64.91h1.07v-.46c0-1.61.77-2.58,2.33-2.58h.66v1.29h-.39a1.06,1.06,0,0,0-1.21,1.21v.54h2.9v-.46c0-1.61.77-2.58,2.33-2.58h.36v1.29h-.23c-.82,0-1.08.51-1.06,1.15v.6Zm-1.61-2a.88.88,0,0,1,.91-.85.86.86,0,0,1,.9.85.88.88,0,0,1-.9.86A.89.89,0,0,1,45.76,62.93Zm2.91,4.78a2.94,2.94,0,0,1,3-2.94A2.86,2.86,0,0,1,54,65.85l-1,.78a1.63,1.63,0,0,0-1.27-.56,1.6,1.6,0,0,0-1.67,1.64A1.69,1.69,0,0,0,53,68.8l1,.78a2.86,2.86,0,0,1-2.28,1.08A3,3,0,0,1,48.67,67.71ZM55,62.93a.88.88,0,0,1,.92-.85.85.85,0,0,1,.89.85.87.87,0,0,1-.89.86A.89.89,0,0,1,55,62.93Zm.22,7.58v-5.6h1.39v5.6Zm8.48-2.31H59.34a1.47,1.47,0,0,0,1.59,1.2,1.87,1.87,0,0,0,1.52-.72l.93.71a3,3,0,0,1-2.53,1.27,2.95,2.95,0,0,1,0-5.89,2.76,2.76,0,0,1,2.85,2.89C63.7,67.82,63.69,68,63.68,68.2Zm-1.35-1A1.37,1.37,0,0,0,60.86,66a1.43,1.43,0,0,0-1.52,1.22Zm8,.14v3.14H69v-3a1.22,1.22,0,0,0-1.16-1.38,1.36,1.36,0,0,0-1.43,1.45v3H65v-5.6h1.39v.89a2,2,0,0,1,1.74-1C69.56,64.77,70.36,65.74,70.36,67.37Zm1.23.34a2.94,2.94,0,0,1,3-2.94,2.86,2.86,0,0,1,2.28,1.08l-1,.78a1.63,1.63,0,0,0-1.27-.56A1.6,1.6,0,0,0,73,67.71a1.69,1.69,0,0,0,2.94,1.09l1,.78a2.86,2.86,0,0,1-2.28,1.08A3,3,0,0,1,71.59,67.71Zm10.2-2.8h1.5l-3.48,8.34H78.35l1.26-3.13-2.24-5.21H78.9l1.45,3.55Z"/><path class="cls-1" d="M6.24,87.52l-.72-2H2.27l-.71,2H0l3.11-8.27H4.69l3.09,8.27Zm-3.53-3.3H5.07L3.9,80.86Z"/><path class="cls-1" d="M12.85,78.87h1.39v8.65H12.85v-.74a2.28,2.28,0,0,1-1.86.88,2.79,2.79,0,0,1-2.76-3A2.77,2.77,0,0,1,11,81.77a2.24,2.24,0,0,1,1.87.88Zm0,5.83a1.63,1.63,0,0,0-1.62-1.63A1.57,1.57,0,0,0,9.64,84.7a1.61,1.61,0,0,0,1.57,1.67A1.64,1.64,0,0,0,12.83,84.7Z"/><path class="cls-1" d="M20.18,78.87h1.39v8.65H20.18v-.74a2.27,2.27,0,0,1-1.86.88,2.79,2.79,0,0,1-2.76-3,2.77,2.77,0,0,1,2.75-2.94,2.24,2.24,0,0,1,1.87.88Zm0,5.83a1.63,1.63,0,0,0-1.62-1.63A1.57,1.57,0,0,0,17,84.7a1.61,1.61,0,0,0,1.57,1.67A1.64,1.64,0,0,0,20.16,84.7Z"/><path class="cls-1" d="M23,79.94a.88.88,0,0,1,.91-.85.85.85,0,1,1,0,1.7A.88.88,0,0,1,23,79.94Zm.21,7.58v-5.6h1.39v5.6Z"/><path class="cls-1" d="M31.65,84.38v3.14H30.26v-3a1.22,1.22,0,0,0-1.16-1.38,1.36,1.36,0,0,0-1.43,1.45v3H26.28v-5.6h1.39v.88a2,2,0,0,1,1.74-1C30.85,81.77,31.65,82.75,31.65,84.38Z"/><path class="cls-1" d="M37.52,81.92h1.39v4.87c0,2.52-1.22,3.61-3.14,3.61a2.92,2.92,0,0,1-2.65-1.63l1.15-.53a1.73,1.73,0,0,0,1.5.9c1.08,0,1.75-.61,1.75-2.22v-.13a2.32,2.32,0,0,1-1.86.87,2.79,2.79,0,0,1-2.76-3,2.77,2.77,0,0,1,2.75-2.94,2.28,2.28,0,0,1,1.87.88Zm0,2.78a1.63,1.63,0,0,0-1.62-1.63,1.57,1.57,0,0,0-1.57,1.63,1.61,1.61,0,0,0,1.57,1.67A1.64,1.64,0,0,0,37.5,84.7Z"/><path class="cls-1" d="M47,79.25c2.37,0,3.75,1.8,3.75,4.16S49.33,87.52,47,87.52H43.73V79.25Zm0,7c1.5,0,2.27-1.27,2.27-2.8s-.77-2.85-2.27-2.85H45.19v5.65Z"/><path class="cls-1" d="M51.83,79.94a.88.88,0,0,1,.91-.85.85.85,0,1,1,0,1.7A.88.88,0,0,1,51.83,79.94ZM52,87.52v-5.6h1.39v5.6Z"/><path class="cls-1" d="M59.37,81.92h1.39v4.87c0,2.52-1.22,3.61-3.14,3.61A2.92,2.92,0,0,1,55,88.77l1.15-.53a1.73,1.73,0,0,0,1.5.9c1.08,0,1.75-.61,1.75-2.22v-.13a2.3,2.3,0,0,1-1.86.87,3,3,0,0,1,0-5.89,2.26,2.26,0,0,1,1.87.88Zm0,2.78a1.63,1.63,0,0,0-1.62-1.63,1.58,1.58,0,0,0-1.57,1.63,1.62,1.62,0,0,0,1.57,1.67A1.64,1.64,0,0,0,59.35,84.7Z"/><path class="cls-1" d="M62.21,79.94a.88.88,0,0,1,.91-.85.85.85,0,1,1,0,1.7A.88.88,0,0,1,62.21,79.94Zm.21,7.58v-5.6h1.39v5.6Z"/><path class="cls-1" d="M68.55,81.92V83H67.37v4.5H66V83H65v-1.1h1V79.85h1.4v2.07Z"/><path class="cls-1" d="M73.8,81.92h1.39v5.6H73.8v-.88a2.28,2.28,0,0,1-1.92,1,3,3,0,0,1,0-5.89,2.24,2.24,0,0,1,1.89.93Zm0,2.79a1.64,1.64,0,0,0-1.62-1.64,1.6,1.6,0,0,0-1.58,1.64,1.6,1.6,0,1,0,3.2,0Z"/><path class="cls-1" d="M76.85,87.52V78.87h1.39v8.65Z"/><path class="cls-1" d="M79.68,79.94a.88.88,0,0,1,.91-.85.85.85,0,1,1,0,1.7A.88.88,0,0,1,79.68,79.94Zm.21,7.58v-5.6h1.4v5.6Z"/><path class="cls-1" d="M82.56,85.79h1.31a.82.82,0,0,0,.92.75c.55,0,.91-.28.91-.64s-.24-.46-.66-.55l-.74-.19c-1.26-.34-1.59-1-1.59-1.72a1.91,1.91,0,0,1,2.09-1.67c1,0,2.12.51,2.11,1.75H85.58a.67.67,0,0,0-.74-.62c-.43,0-.73.25-.73.6s.27.46.6.53l.9.24c1.25.32,1.48,1.11,1.48,1.63,0,1.14-1.14,1.76-2.28,1.76A2.06,2.06,0,0,1,82.56,85.79Z"/><path class="cls-1" d="M92.67,81.92h1.39v5.6H92.67v-.88a2.25,2.25,0,0,1-1.92,1,3,3,0,0,1,0-5.89,2.21,2.21,0,0,1,1.88.93Zm0,2.79A1.64,1.64,0,0,0,91,83.07a1.6,1.6,0,0,0-1.58,1.64A1.62,1.62,0,0,0,91,86.37,1.63,1.63,0,0,0,92.65,84.71Z"/><path class="cls-1" d="M98.8,81.92V83H97.62v4.5H96.23V83h-1v-1.1h1V79.85h1.39v2.07Z"/><path class="cls-1" d="M99.66,79.94a.88.88,0,0,1,.91-.85.85.85,0,1,1,0,1.7A.88.88,0,0,1,99.66,79.94Zm.22,7.58v-5.6h1.39v5.6Z"/><path class="cls-1" d="M102.57,84.71a3,3,0,1,1,3,3A2.9,2.9,0,0,1,102.57,84.71Zm4.56,0a1.58,1.58,0,1,0-1.58,1.66A1.58,1.58,0,0,0,107.13,84.71Z"/><path class="cls-1" d="M115.22,84.38v3.14h-1.39v-3a1.22,1.22,0,0,0-1.16-1.38,1.36,1.36,0,0,0-1.43,1.45v3h-1.39v-5.6h1.39v.88a2,2,0,0,1,1.74-1C114.42,81.77,115.22,82.75,115.22,84.38Z"/></g></g></svg>